<svg xmlns="http://www.w3.org/2000/svg" viewBox="0 0 499.34 377.24"><title>logo2</title><g id="Layer_2" data-name="Layer 2"><g id="toparrow"><path d="M377.2,125.38,264.73,12.91a21.29,21.29,0,0,0-30.12,0L122.14,125.38" style="fill:none;stroke:#fff;stroke-linecap:round;stroke-linejoin:round;stroke-width:13.3447664831656px"/></g><g id="bottomArrow"><path d="M377.2,251.86,264.73,364.33a21.29,21.29,0,0,1-30.12,0L122.14,251.86" style="fill:none;stroke:#fff;stroke-linecap:round;stroke-linejoin:round;stroke-width:13.3447664831656px"/></g><g id="rightarrow"><path d="M374,61.09,486.43,173.56a21.29,21.29,0,0,1,0,30.12L374,316.15" style="fill:none;stroke:#fff;stroke-linecap:round;stroke-linejoin:round;stroke-width:13.3447664831656px"/></g><g id="leftarrow"><path d="M125.38,61.09,12.91,173.56a21.29,21.29,0,0,0,0,30.12L125.38,316.15" style="fill:none;stroke:#fff;stroke-linecap:round;stroke-linejoin:round;stroke-width:13.3447664831656px"/></g><g id="outlineSquare"><path d="M249.67,81.34a7.91,7.91,0,0,1,5.62,2.33L354.62,183a7.94,7.94,0,0,1,0,11.24l-99.33,99.33a7.94,7.94,0,0,1-11.24,0l-99.33-99.33a7.94,7.94,0,0,1,0-11.24l99.33-99.33a7.91,7.91,0,0,1,5.62-2.33m0-13.34a21.22,21.22,0,0,0-15.06,6.23l-99.33,99.33a21.31,21.31,0,0,0,0,30.12L234.61,303a21.32,21.32,0,0,0,30.12,0l99.33-99.33a21.31,21.31,0,0,0,0-30.12L264.73,74.23A21.22,21.22,0,0,0,249.67,68Z" style="fill:#fff"/></g><g id="filledsquare"><rect x="187.86" y="126.81" width="123.61" height="123.61" rx="10.6" transform="translate(206.5 -121.3) rotate(45)" style="fill:#fff"/></g><g id="android"><path d="M292,212.64H207.4a42.28,42.28,0,0,1,84.55,0Z" style="fill:#000049"/><circle cx="266.48" cy="194.96" r="6.78" style="fill:#fff"/><circle cx="233.24" cy="194.96" r="6.78" style="fill:#fff"/><rect x="219.7" y="162.79" width="6.33" height="18.7" rx="3.17" transform="translate(-56.44 208.01) rotate(-45)" style="fill:#000049"/><rect x="273.59" y="162.79" width="6.33" height="18.7" rx="3.17" transform="translate(350.73 489.55) rotate(-135)" style="fill:#000049"/></g></g></svg>