<svg xmlns="http://www.w3.org/2000/svg" viewBox="0 0 1000 1000"><title>NEW LOGO edited version</title><g id="Layer_1" data-name="Layer 1"><path d="M494.7,339.22a11.85,11.85,0,0,1,8.43,3.49L652,491.58a11.91,11.91,0,0,1,0,16.84L503.13,657.29a11.91,11.91,0,0,1-16.85,0L337.41,508.42a11.93,11.93,0,0,1,0-16.84L486.28,342.71a11.83,11.83,0,0,1,8.42-3.49m0-20a31.78,31.78,0,0,0-22.56,9.35L323.27,477.43a31.93,31.93,0,0,0,0,45.14L472.14,671.43a31.9,31.9,0,0,0,45.13,0L666.14,522.57a31.93,31.93,0,0,0,0-45.14L517.27,328.57a31.78,31.78,0,0,0-22.57-9.35Z" fill="#000049"/><path d="M686.28,308.87,854.84,477.43a31.93,31.93,0,0,1,0,45.14L686.28,691.13" fill="none" stroke="#000049" stroke-linecap="round" stroke-linejoin="round" stroke-width="20"/><path d="M685.83,594.78,517.27,763.34a31.92,31.92,0,0,1-45.13,0L303.57,594.78" fill="none" stroke="#000049" stroke-linecap="round" stroke-linejoin="round" stroke-width="20"/><path d="M685.83,405.22,517.27,236.66a31.92,31.92,0,0,0-45.13,0L303.57,405.22" fill="none" stroke="#000049" stroke-linecap="round" stroke-linejoin="round" stroke-width="20"/><path d="M313.72,308.87,145.16,477.43a31.93,31.93,0,0,0,0,45.14L313.72,691.13" fill="none" stroke="#000049" stroke-linecap="round" stroke-linejoin="round" stroke-width="20"/><rect x="402.37" y="407.37" width="185.26" height="185.26" rx="15.88" transform="translate(498.54 -203.57) rotate(45)" fill="#000049"/></g><g id="main_logo" data-name="main logo"><path d="M558,536H431.29A63.36,63.36,0,0,1,558,536Z" fill="#fff"/><circle cx="519.84" cy="509.54" r="10.16" fill="#000049"/><circle cx="470.02" cy="509.54" r="10.16" fill="#000049"/><rect x="449.73" y="461.33" width="9.49" height="28.03" rx="4.75" transform="translate(-203 460.58) rotate(-45)" fill="#fff"/><rect x="530.49" y="461.33" width="9.49" height="28.03" rx="4.75" transform="translate(577.58 1189.92) rotate(-135)" fill="#fff"/></g></svg>